<?xml version="1.0"?>
<svg xmlns="http://www.w3.org/2000/svg" width="512" height="512" viewBox="0 0 512 512"><g><path d="M56,176a24,24,0,1,0,24,24A24.027,24.027,0,0,0,56,176Zm0,32a8,8,0,1,1,8-8A8.009,8.009,0,0,1,56,208Z"/><path d="M232,176H168a8,8,0,0,0,0,16h64a8,8,0,0,0,0-16Z"/><path d="M232,200H216a8,8,0,0,0,0,16h16a8,8,0,0,0,0-16Z"/><path d="M144,176h-8a8,8,0,0,0,0,16h8a8,8,0,0,0,0-16Z"/><path d="M56,64A24,24,0,1,0,80,88,24.027,24.027,0,0,0,56,64Zm0,32a8,8,0,1,1,8-8A8.009,8.009,0,0,1,56,96Z"/><path d="M232,64H168a8,8,0,0,0,0,16h64a8,8,0,0,0,0-16Z"/><path d="M232,88H216a8,8,0,0,0,0,16h16a8,8,0,0,0,0-16Z"/><path d="M144,64h-8a8,8,0,0,0,0,16h8a8,8,0,0,0,0-16Z"/><path d="M56,288a24,24,0,1,0,24,24A24.027,24.027,0,0,0,56,288Zm0,32a8,8,0,1,1,8-8A8.009,8.009,0,0,1,56,320Z"/><path d="M232,288H168a8,8,0,0,0,0,16h64a8,8,0,0,0,0-16Z"/><path d="M232,312H216a8,8,0,0,0,0,16h16a8,8,0,0,0,0-16Z"/><path d="M144,288h-8a8,8,0,0,0,0,16h8a8,8,0,0,0,0-16Z"/><path d="M56,400a24,24,0,1,0,24,24A24.027,24.027,0,0,0,56,400Zm0,32a8,8,0,1,1,8-8A8.009,8.009,0,0,1,56,432Z"/><path d="M232,400H168a8,8,0,0,0,0,16h64a8,8,0,0,0,0-16Z"/><path d="M232,424H216a8,8,0,0,0,0,16h16a8,8,0,0,0,0-16Z"/><path d="M144,400h-8a8,8,0,0,0,0,16h8a8,8,0,0,0,0-16Z"/><path d="M488,205.46V144a32.03,32.03,0,0,0-32-32H376a32.03,32.03,0,0,0-32,32v61.46A87.444,87.444,0,0,0,328.37,248H304V88a8,8,0,0,0-8-8H264V64a24.032,24.032,0,0,0-24-24H32A24.032,24.032,0,0,0,8,64v48a24.032,24.032,0,0,0,24,24H240a24.032,24.032,0,0,0,24-24V96h24v96H264V176a24.032,24.032,0,0,0-24-24H32A24.032,24.032,0,0,0,8,176v48a24.032,24.032,0,0,0,24,24H240a24.032,24.032,0,0,0,24-24V208h24v96H264V288a24.032,24.032,0,0,0-24-24H32A24.032,24.032,0,0,0,8,288v48a24.032,24.032,0,0,0,24,24H240a24.032,24.032,0,0,0,24-24V320h24v96H264V400a24.032,24.032,0,0,0-24-24H32A24.032,24.032,0,0,0,8,400v48a24.032,24.032,0,0,0,24,24H240a24.032,24.032,0,0,0,24-24V432h32a8,8,0,0,0,8-8V264h24.37A87.444,87.444,0,0,0,344,306.54V368a32.036,32.036,0,0,0,32,32h80a32.036,32.036,0,0,0,32-32V306.54a87.822,87.822,0,0,0,0-101.08ZM248,112a8.011,8.011,0,0,1-8,8H32a8.011,8.011,0,0,1-8-8V64a8.011,8.011,0,0,1,8-8H240a8.011,8.011,0,0,1,8,8Zm0,112a8.011,8.011,0,0,1-8,8H32a8.011,8.011,0,0,1-8-8V176a8.011,8.011,0,0,1,8-8H240a8.011,8.011,0,0,1,8,8Zm0,112a8.011,8.011,0,0,1-8,8H32a8.011,8.011,0,0,1-8-8V288a8.011,8.011,0,0,1,8-8H240a8.011,8.011,0,0,1,8,8Zm0,112a8.011,8.011,0,0,1-8,8H32a8.011,8.011,0,0,1-8-8V400a8.011,8.011,0,0,1,8-8H240a8.011,8.011,0,0,1,8,8ZM360,144a16.021,16.021,0,0,1,16-16h80a16.021,16.021,0,0,1,16,16v44.17a87.824,87.824,0,0,0-112,0ZM472,368a16.021,16.021,0,0,1-16,16H376a16.021,16.021,0,0,1-16-16V323.83c.84.7,1.7,1.37,2.57,2.04a7.771,7.771,0,0,0,1.3.98,87.8,87.8,0,0,0,104.26,0,7.771,7.771,0,0,0,1.3-.98c.87-.67,1.73-1.34,2.57-2.04ZM416,264a40,40,0,0,1,40,40v11.83a71.82,71.82,0,0,1-80,0V304A40.04,40.04,0,0,1,416,264Zm-16-32a16,16,0,1,1,16,16A16.021,16.021,0,0,1,400,232Zm71.93,69.27a56.176,56.176,0,0,0-32.08-47.97,32,32,0,1,0-47.67.03,56.1,56.1,0,0,0-32.11,47.94,72,72,0,1,1,111.86,0Z"/></g></svg>
